#!Matlab matrix to amc conversion
:FULLY-SPECIFIED
:DEGREES
151
root -2.309090 1.009153 59.249717 6.420898 -1.548762 -4.320643
lowerback -5.008994 1.310379 1.283364
upperback -1.593831 1.656418 3.169979
thorax 1.022558 0.829499 2.619389
lowerneck -23.353736 -4.497955 -12.329892
upperneck 24.663291 -5.515972 12.486137
head 12.829444 -1.977500 5.979473
rclavicle -0.000000 0.000000
rhumerus -31.668048 20.670726 -85.701390
rradius 34.367381
rwrist -15.821902
rhand -28.856200 -18.800500
rfingers 7.125020
rthumb -2.212790 -48.768800
lclavicle -0.000000 0.000000
lhumerus -38.376316 9.650606 81.129881
lradius 14.214336
lwrist -21.875367
lhand -19.668800 -28.799300
lfingers 7.125020
lthumb 6.659510 1.076010
rfemur -2.731567 -1.550329 31.254675
rtibia 14.834643
rfoot -14.734513 7.474689
rtoes -20.766800
lfemur -37.213192 10.861263 -18.789262
ltibia 48.570026
lfoot -5.029185 25.252797
ltoes -22.051700
152
root -2.305846 0.969800 59.599982 6.745185 -2.332569 -4.459580
lowerback -4.985475 1.558671 1.484385
upperback -1.544875 1.970743 3.139207
thorax 1.059830 0.986752 2.498847
lowerneck -23.421603 -4.428046 -12.368287
upperneck 24.558836 -5.373095 12.467146
head 12.777282 -1.918147 5.998127
rclavicle -0.000000 0.000000
rhumerus -30.634590 22.132718 -85.396548
rradius 36.063500
rwrist -16.823961
rhand -28.856200 -18.800500
rfingers 7.125020
rthumb -2.212790 -48.768800
lclavicle -0.000000 0.000000
lhumerus -40.674696 14.918414 76.201525
lradius 12.997499
lwrist -27.703149
lhand -19.668800 -28.799300
lfingers 7.125020
lthumb 6.659510 1.076010
rfemur -1.170951 -1.591769 31.258574
rtibia 13.494080
rfoot -14.353388 7.828752
rtoes -20.766800
lfemur -38.236196 10.006393 -18.165598
ltibia 43.002684
lfoot -6.230583 23.929926
ltoes -22.051700
153
root -2.301504 0.931405 59.953675 7.120246 -3.131728 -4.587542
lowerback -5.038966 1.813709 1.670348
upperback -1.479907 2.288194 3.104807
thorax 1.164754 1.146496 2.388589
lowerneck -23.469582 -4.357354 -12.415792
upperneck 24.510836 -5.226885 12.423480
head 12.743143 -1.862000 6.012281
rclavicle 0.000000 0.000000
rhumerus -29.357338 23.253801 -84.908230
rradius 37.669080
rwrist -17.690505
rhand -28.856200 -18.800500
rfingers 7.125020
rthumb -2.212790 -48.768800
lclavicle 0.000000 0.000000
lhumerus -43.061790 19.127255 71.609504
lradius 12.126773
lwrist -32.522502
lhand -19.668800 -28.799300
lfingers 7.125020
lthumb 6.659510 1.076010
rfemur 0.583518 -1.612180 31.119952
rtibia 11.890357
rfoot -13.606356 8.284194
rtoes -20.766800
lfemur -39.025764 8.837697 -17.337312
ltibia 36.992105
lfoot -7.377578 22.519983
ltoes -22.051700
154
root -2.295789 0.892841 60.312480 7.540218 -3.976769 -4.758327
lowerback -5.183476 2.098730 1.905308
upperback -1.395773 2.635479 3.072527
thorax 1.348089 1.322501 2.261150
lowerneck -23.516178 -4.296640 -12.469389
upperneck 24.469912 -5.089174 12.358664
head 12.713117 -1.812394 6.018276
rclavicle 0.000000 0.000000
rhumerus -27.768672 24.233462 -84.285354
rradius 39.360812
rwrist -18.603344
rhand -28.856200 -18.800500
rfingers 7.125020
rthumb -2.212790 -48.768800
lclavicle 0.000000 0.000000
lhumerus -45.564895 22.144280 67.501078
lradius 11.459208
lwrist -36.133915
lhand -19.668800 -28.799300
lfingers 7.125020
lthumb 6.659510 1.076010
rfemur 2.764879 -1.554047 30.870753
rtibia 9.740310
rfoot -12.433574 8.837318
rtoes -20.766800
lfemur -39.636678 7.338400 -16.274477
ltibia 30.450792
lfoot -8.416794 21.156392
ltoes -22.051700
155
root -2.288623 0.852256 60.679003 8.011398 -4.949795 -4.985427
lowerback -5.450855 2.445311 2.204367
upperback -1.289506 3.052542 3.035738
thorax 1.627402 1.534999 2.104911
lowerneck -23.615821 -4.254302 -12.493191
upperneck 24.465062 -4.973859 12.241539
head 12.707715 -1.774129 5.996744
rclavicle 0.000000 -0.000000
rhumerus -25.846373 25.194942 -83.536461
rradius 41.224617
rwrist -19.671522
rhand -28.856200 -18.800500
rfingers 7.125020
rthumb -2.212790 -48.768800
lclavicle 0.000000 -0.000000
lhumerus -48.180462 24.037940 63.864638
lradius 10.868695
lwrist -38.634604
lhand -19.668800 -28.799300
lfingers 7.125020
lthumb 6.659510 1.076010
rfemur 5.697366 -1.312250 30.540696
rtibia 6.510995
rfoot -10.786906 9.372551
rtoes -20.766800
lfemur -40.068180 5.624158 -14.997014
ltibia 23.425857
lfoot -8.966215 20.366083
ltoes -22.051700
156
root -2.281027 0.806652 61.056148 8.502947 -6.058614 -5.253486
lowerback -5.847954 2.848038 2.537822
upperback -1.167457 3.534915 2.991507
thorax 1.996281 1.781472 1.933235
lowerneck -23.820569 -4.228278 -12.443256
upperneck 24.575957 -4.888567 12.045408
head 12.765065 -1.748448 5.932568
rclavicle -0.000000 -0.000000
rhumerus -23.702862 26.125526 -82.730234
rradius 43.114180
rwrist -20.841063
rhand -28.856200 -18.800500
rfingers 7.125020
rthumb -2.212790 -48.768800
lclavicle -0.000000 -0.000000
lhumerus -50.699306 24.888838 60.860060
lradius 10.273955
lwrist -40.193333
lhand -19.668800 -28.799300
lfingers 7.125020
lthumb 6.659510 1.076010
rfemur 9.500536 -0.779022 30.181095
rtibia 1.914199
rfoot -8.738047 9.666472
rtoes -20.766800
lfemur -40.301228 3.999191 -13.665533
ltibia 16.752062
lfoot -8.747882 20.413808
ltoes -22.051700
157
root -2.275397 0.753135 61.446729 8.904319 -7.078498 -5.562690
lowerback -6.288260 3.218042 2.875966
upperback -1.050605 3.974026 2.961670
thorax 2.384469 2.006129 1.773071
lowerneck -24.085749 -4.200687 -12.331009
upperneck 24.795881 -4.822258 11.825958
head 12.874810 -1.726474 5.851347
rclavicle -0.000000 -0.000000
rhumerus -21.669434 26.884608 -82.059639
rradius 44.681398
rwrist -21.837557
rhand -28.856200 -18.800500
rfingers 7.125020
rthumb -2.212790 -48.768800
lclavicle -0.000000 -0.000000
lhumerus -52.675493 24.769182 58.952807
lradius 9.613354
lwrist -40.850270
lhand -19.668800 -28.799300
lfingers 7.125020
lthumb 6.659510 1.076010
rfemur 13.619425 -0.020245 29.898108
rtibia -3.170492
rfoot -6.568819 9.602496
rtoes -20.766800
lfemur -40.387618 2.869136 -12.598069
ltibia 12.054973
lfoot -8.102938 20.540689
ltoes -22.051700
158
root -2.273557 0.692297 61.853104 9.109922 -7.707323 -5.939579
lowerback -6.633927 3.452672 3.226546
upperback -0.959209 4.243188 2.975518
thorax 2.696266 2.143898 1.633329
lowerneck -24.277732 -4.158906 -12.234562
upperneck 24.970833 -4.759144 11.699675
head 12.958692 -1.698369 5.806831
rclavicle -0.000000 -0.000000
rhumerus -20.087498 27.354678 -81.679463
rradius 45.751623
rwrist -22.408103
rhand -28.856200 -18.800500
rfingers 7.125020
rthumb -2.212790 -48.768800
lclavicle -0.000000 -0.000000
lhumerus -53.865686 23.900265 58.366590
lradius 8.836887
lwrist -40.607077
lhand -19.668800 -28.799300
lfingers 7.125020
lthumb 6.659510 1.076010
rfemur 17.109361 0.690767 29.777167
rtibia -7.050703
rfoot -4.557778 9.374316
rtoes -20.766800
lfemur -40.463983 2.399075 -12.015105
ltibia 10.192563
lfoot -7.645834 19.664636
ltoes -22.051700
